<?xml version="1.0" standalone="no"?>
<!DOCTYPE svg PUBLIC "-//W3C//DTD SVG 20010904//EN"
 "http://www.w3.org/TR/2001/REC-SVG-20010904/DTD/svg10.dtd">
<svg version="1.0" xmlns="http://www.w3.org/2000/svg"
 width="500.000000pt" height="500.000000pt" viewBox="0 0 500.000000 500.000000"
 preserveAspectRatio="xMidYMid meet">

<g transform="translate(0.000000,500.000000) scale(0.100000,-0.100000)"
fill="#000000" stroke="none">
<path d="M2233 4680 c-184 -20 -418 -88 -631 -184 -649 -294 -1105 -880 -1255
-1611 -20 -99 -22 -138 -22 -395 1 -275 2 -289 29 -409 44 -199 125 -429 207
-593 80 -160 222 -355 371 -508 63 -65 216 -198 273 -237 366 -249 742 -390
1137 -424 309 -27 604 16 917 132 756 281 1262 878 1418 1674 25 132 26 609 0
745 -92 487 -359 962 -722 1283 -304 269 -786 487 -1165 527 -108 11 -449 11
-557 0z m468 -61 c168 -17 303 -47 479 -106 155 -52 338 -137 435 -202 22 -15
47 -30 55 -33 33 -13 179 -125 263 -202 202 -184 347 -380 481 -650 123 -249
225 -664 201 -821 -8 -58 -18 -52 -17 12 l0 48 -13 -45 -13 -45 -3 75 c-2 41
-3 91 -2 110 0 19 -3 37 -7 40 -5 3 -11 28 -14 55 -6 62 -47 220 -87 340 -31
92 -84 206 -162 350 -46 85 -196 293 -241 334 -14 14 -26 28 -26 32 0 4 -29
35 -65 70 -35 34 -62 66 -58 72 3 6 2 7 -4 4 -11 -7 -189 132 -186 144 1 4 -4
10 -13 13 -9 4 -12 2 -8 -5 3 -6 -5 -3 -20 6 -14 9 -23 21 -20 26 3 5 2 8 -3
7 -8 -3 -303 149 -313 161 -3 3 -12 7 -20 8 -8 1 -51 15 -95 32 -377 140 -781
167 -1165 76 -238 -56 -369 -107 -573 -223 -319 -181 -633 -497 -777 -782 -18
-35 -43 -82 -57 -103 -13 -22 -26 -46 -28 -56 -4 -21 -42 -118 -57 -145 -7
-12 -13 -25 -14 -31 -11 -47 -47 -183 -51 -195 -4 -8 -5 -19 -4 -23 1 -5 -4
-27 -10 -50 -7 -23 -11 -52 -11 -65 1 -13 -2 -21 -6 -18 -4 3 -7 -7 -7 -22 1
-15 -4 -81 -10 -147 -7 -66 -13 -109 -14 -95 -1 20 -3 22 -11 10 -8 -13 -10
-12 -11 5 -1 11 -5 4 -9 -15 -15 -70 -11 83 6 212 80 632 444 1198 980 1523
159 97 289 158 459 214 291 95 571 129 846 100z m-281 -135 c18 -4 46 -21 62
-38 l30 -32 32 32 c73 73 211 48 258 -46 30 -59 17 -181 -22 -205 -7 -4 -6 4
3 22 9 16 18 47 22 68 l6 40 -20 -39 c-31 -58 -47 -72 -156 -138 -55 -32 -107
-64 -115 -70 -12 -8 -34 1 -95 40 -135 86 -159 106 -182 152 -17 33 -23 39
-23 22 0 -13 7 -39 15 -59 20 -47 12 -54 -14 -12 -31 50 -31 120 -1 180 23 43
39 57 87 75 43 15 67 17 113 8z m-267 -71 c-4 -10 -9 -11 -19 -2 -11 9 -12 15
-3 26 14 17 31 -1 22 -24z m737 6 c0 -5 -4 -9 -10 -9 -5 0 -10 7 -10 16 0 8 5
12 10 9 6 -3 10 -10 10 -16z m123 -36 c-7 -17 -19 -17 -26 1 -7 18 14 40 24
24 4 -6 5 -17 2 -25z m-999 19 c2 -4 0 -14 -5 -22 -8 -13 -10 -13 -18 0 -10
15 -6 30 9 30 5 0 11 -4 14 -8z m-29 -172 c17 -35 34 -59 41 -56 7 3 17 -13
24 -39 8 -27 17 -42 24 -39 8 3 19 -12 29 -36 8 -22 21 -39 29 -38 8 2 16 -14
22 -44 5 -27 15 -48 21 -48 12 0 55 -128 55 -162 0 -21 15 -24 26 -6 6 9 10 5
15 -12 11 -39 10 -82 -1 -75 -5 3 -10 17 -10 31 0 27 -13 31 -32 10 -11 -12
-18 -10 -46 17 -36 35 -46 30 -59 -26 -7 -34 -24 -30 -36 9 -6 16 -15 32 -21
36 -7 5 -6 8 3 8 10 0 11 4 3 13 -5 6 -12 23 -14 36 -2 18 -15 28 -52 43 -27
10 -51 16 -54 13 -3 -3 7 -18 22 -34 22 -23 24 -29 12 -34 -13 -5 -14 -12 -6
-32 13 -34 14 -33 -15 -27 -27 5 -35 -14 -14 -35 6 -6 8 -16 5 -22 -10 -16
-41 -13 -56 4 -10 13 -9 15 9 15 26 0 26 1 1 50 -25 49 -25 53 1 40 11 -7 23
-10 25 -7 2 2 -9 36 -25 75 -17 40 -28 72 -26 72 2 0 38 -19 80 -41 42 -23 78
-40 79 -38 2 2 -11 56 -30 119 -18 63 -33 102 -33 87 -1 -25 -4 -27 -23 -22
-19 5 -17 3 7 -14 23 -16 32 -32 40 -76 6 -30 7 -55 2 -55 -11 0 -89 54 -104
72 -6 7 -15 26 -19 42 -6 24 -4 28 8 23 14 -5 14 0 2 40 -18 59 -19 92 -2 75
23 -23 27 -11 21 67 -3 43 -3 91 1 107 l7 28 18 -27 c9 -15 30 -54 46 -87z
m1123 -27 c-3 -75 -1 -82 20 -61 16 16 16 -27 0 -72 -9 -26 -9 -35 0 -38 37
-12 -5 -82 -69 -116 l-52 -29 6 33 c4 18 7 43 7 56 0 17 10 29 40 44 49 25 53
36 5 16 -32 -14 -35 -14 -36 2 0 9 -13 -28 -28 -83 -15 -55 -26 -102 -25 -104
2 -2 40 16 84 39 92 47 93 46 44 -52 -24 -48 -24 -52 8 -49 16 2 16 -1 3 -33
-19 -45 -19 -56 1 -56 14 0 14 -3 4 -15 -7 -8 -20 -15 -30 -15 -15 0 -17 7
-15 35 3 32 1 35 -22 35 -22 0 -24 3 -19 25 5 20 3 25 -11 25 -13 0 -7 10 21
33 46 39 34 60 -17 29 -18 -10 -40 -18 -49 -16 -12 1 -20 -16 -34 -75 -18 -73
-35 -95 -43 -55 -5 32 -22 46 -37 33 -7 -6 -13 -14 -12 -17 5 -39 -34 -44 -58
-7 -22 33 -34 32 -34 -4 0 -17 -4 -33 -10 -36 -11 -7 -12 5 -4 57 5 31 9 36
23 28 15 -8 20 3 40 86 18 74 26 92 36 84 10 -8 15 3 24 51 10 47 15 58 25 50
10 -8 16 -1 25 30 8 27 17 39 26 36 8 -4 17 9 25 38 8 29 17 42 25 39 8 -3 16
4 20 18 4 13 23 52 43 88 l36 65 9 -35 c5 -19 7 -68 5 -107z m-1014 87 c-13
-13 -16 -13 -23 -1 -12 19 9 42 25 27 10 -9 9 -14 -2 -26z m1121 10 c-5 -8
-11 -8 -17 -2 -6 6 -7 16 -3 22 5 8 11 8 17 2 6 -6 7 -16 3 -22z m-265 -24
c-13 -13 -35 7 -25 24 5 8 11 8 21 -1 10 -8 12 -15 4 -23z m-1105 15 c7 -12
-12 -24 -25 -16 -11 7 -4 25 10 25 5 0 11 -4 15 -9z m1524 -41 l26 -1 -23 -18
c-12 -11 -20 -25 -17 -33 4 -10 -5 -13 -33 -13 -32 0 -38 3 -34 17 2 10 -3 20
-12 24 -22 9 -20 24 4 24 10 0 25 10 31 22 l12 23 10 -23 c7 -14 19 -22 36
-22z m-1706 10 c10 -12 22 -18 27 -15 16 10 11 -11 -5 -25 -8 -7 -15 -19 -15
-26 0 -8 -6 -14 -14 -14 -8 0 -21 -3 -30 -6 -12 -5 -16 0 -16 21 0 18 -6 29
-20 32 -28 7 -25 23 4 23 13 0 26 7 30 15 7 20 18 19 39 -5z m-143 -76 c0 -17
-26 -19 -36 -3 -7 12 15 31 28 23 4 -3 8 -12 8 -20z m1370 -48 c-15 -15 -33 4
-19 20 10 12 14 12 20 2 5 -7 4 -17 -1 -22z m-737 -2 c-3 -8 -9 -14 -13 -14
-13 0 -22 19 -15 30 9 14 34 0 28 -16z m1547 -52 c64 -32 78 -43 98 -82 12
-24 22 -59 22 -76 0 -27 -3 -31 -20 -27 -11 3 -23 16 -26 29 -3 13 -13 29 -22
36 -14 10 -15 10 -4 -2 14 -17 16 -50 2 -50 -5 0 -10 6 -10 13 0 26 -38 50
-68 44 -22 -5 -30 -1 -37 16 -24 53 -121 70 -180 31 -39 -26 -49 -105 -18
-152 25 -40 76 -55 141 -41 31 6 63 16 73 22 22 14 49 2 49 -21 0 -21 33 -53
73 -70 15 -6 27 -16 27 -22 0 -6 -32 -26 -72 -45 -62 -30 -82 -35 -138 -33
-55 1 -58 2 -18 5 l47 4 -20 33 -20 34 -70 -16 c-47 -10 -73 -12 -80 -5 -7 7
7 12 44 16 55 7 192 45 185 52 -2 2 -24 -1 -48 -6 -121 -28 -293 25 -337 104
l-12 22 -1 -23 c0 -35 25 -76 63 -102 30 -21 35 -29 33 -62 0 -21 -5 -38 -9
-38 -5 0 -5 -6 -2 -12 4 -7 -2 -2 -14 12 -20 25 -91 186 -126 287 -15 42 -16
57 -7 78 15 32 56 48 104 42 24 -3 57 2 90 15 124 47 197 45 308 -10z m-2318
6 c-15 -15 -26 -4 -18 18 5 13 9 15 18 6 9 -9 9 -15 0 -24z m405 5 c24 -24 27
-32 18 -50 -13 -29 -60 -31 -75 -4 -7 15 -6 27 8 50 9 17 18 31 18 31 1 0 15
-12 31 -27z m1023 -24 c0 -4 -9 -13 -19 -18 -22 -12 -37 9 -19 27 11 11 38 5
38 -9z m-1196 1 c14 -5 34 -27 45 -49 15 -28 31 -43 54 -50 64 -21 127 -110
127 -178 0 -24 -2 -43 -4 -43 -3 0 -35 7 -73 16 -85 20 -139 13 -219 -26 -121
-59 -152 -165 -63 -219 l30 -18 -25 -5 c-14 -3 -23 -1 -20 3 3 5 -3 9 -13 9
-10 0 -35 9 -56 19 -21 11 -37 14 -37 8 0 -6 -3 -7 -7 -4 -3 4 -13 1 -21 -6
-13 -10 -15 -9 -9 5 4 11 2 15 -6 12 -7 -2 -22 14 -35 37 -13 22 -26 39 -28
36 -7 -7 19 -72 34 -83 10 -7 12 -13 4 -18 -6 -4 -23 13 -39 41 -25 43 -28 58
-29 143 -1 69 3 98 13 109 8 7 11 21 8 29 -3 9 -3 13 1 10 7 -8 54 44 54 60 0
26 -67 17 -96 -12 -18 -19 -18 -36 1 -63 14 -20 13 -21 -5 -16 -26 7 -50 41
-50 71 0 31 26 79 49 92 31 16 94 11 120 -9 24 -18 25 -18 75 5 28 13 56 24
63 24 6 0 14 9 18 20 15 48 81 72 139 50z m679 -47 c-6 -16 -25 -17 -41 -1 -9
9 -7 14 5 23 19 14 44 -1 36 -22z m1282 -7 c67 -28 67 -84 0 -106 -60 -20
-135 10 -135 54 0 27 17 44 57 56 39 12 40 12 78 -4z m-831 -56 c15 0 17 -3 8
-12 -7 -7 -12 -19 -12 -28 0 -12 -9 -16 -34 -16 -25 0 -32 4 -28 14 3 8 -3 21
-13 28 -18 13 -18 14 4 14 15 0 25 7 29 22 l5 22 10 -22 c6 -12 19 -22 31 -22z
m1162 -21 c43 -20 84 -71 84 -103 0 -14 -4 -14 -42 3 -24 11 -55 24 -70 30
-24 9 -28 16 -28 51 0 22 3 40 7 40 4 0 26 -9 49 -21z m-1542 -14 c3 -8 13
-15 22 -15 9 0 13 -5 10 -12 -3 -7 -9 -21 -12 -31 -4 -10 -12 -16 -18 -14 -6
2 -20 0 -30 -5 -16 -9 -18 -7 -13 11 3 14 0 24 -9 28 -21 8 -17 23 6 23 11 0
20 7 20 15 0 8 4 15 9 15 5 0 11 -7 15 -15z m1316 -5 c5 0 21 -10 37 -23 15
-13 49 -29 75 -36 26 -7 84 -28 130 -47 80 -32 107 -57 75 -70 -23 -9 -238 84
-278 121 -20 18 -46 36 -58 40 -12 3 -21 11 -21 17 0 5 7 7 16 4 9 -3 19 -6
24 -6z m-1140 -35 c0 -8 9 -15 20 -15 11 0 20 -4 20 -10 0 -5 -4 -10 -10 -10
-5 0 -10 -12 -10 -26 0 -22 -2 -25 -15 -14 -12 10 -18 10 -30 0 -13 -11 -15
-8 -15 14 0 14 -4 26 -10 26 -5 0 -10 5 -10 10 0 6 9 10 20 10 11 0 20 7 20
15 0 8 5 15 10 15 6 0 10 -7 10 -15z m-1452 -46 c-16 -10 -33 5 -23 21 5 8 11
8 21 -1 12 -10 12 -14 2 -20z m1613 -22 c-13 -13 -26 -3 -16 12 3 6 11 8 17 5
6 -4 6 -10 -1 -17z m-61 -67 c4 0 5 -11 3 -25 -4 -18 -11 -24 -27 -22 -28 3
-37 36 -17 64 16 21 16 21 25 2 5 -10 12 -19 16 -19z m-625 20 c3 -6 -1 -7 -9
-4 -18 7 -21 14 -7 14 6 0 13 -4 16 -10z m955 -10 c0 -5 -5 -10 -11 -10 -5 0
-7 5 -4 10 3 6 8 10 11 10 2 0 4 -4 4 -10z m-1965 -41 c-5 -7 -11 -6 -21 2
-11 9 -12 15 -2 26 10 12 13 12 20 -1 5 -9 6 -21 3 -27z m1408 5 c-7 -18 -8
-18 -28 2 -13 13 -14 19 -4 25 17 10 39 -8 32 -27z m-662 -1 c13 -15 12 -15
-9 -4 -19 10 -23 9 -30 -9 l-8 -21 -19 21 c-17 19 -19 19 -36 4 -20 -18 -87
-25 -91 -9 -9 31 169 48 193 18z m-616 -78 c-6 -5 -16 -17 -21 -26 -8 -15 -13
-13 -37 12 -20 20 -24 29 -13 29 8 0 20 9 26 20 10 19 11 19 33 -3 17 -16 20
-25 12 -32z m388 1 c-7 -13 -11 -13 -28 0 -20 15 -20 16 5 36 l25 20 3 -20 c2
-12 0 -28 -5 -36z m2582 15 c-9 -16 -25 -3 -18 15 4 10 9 12 15 6 6 -6 7 -15
3 -21z m-972 -11 c-6 -24 -23 -37 -23 -18 0 12 18 38 26 38 1 0 0 -9 -3 -20z
m791 -2 c-9 -31 -33 -57 -69 -75 -26 -13 -24 -9 18 33 26 26 47 51 47 56 0 4
3 8 6 8 3 0 2 -10 -2 -22z m-2010 -19 c-8 -13 -24 -1 -24 18 0 13 3 13 15 3 8
-7 12 -16 9 -21z m1527 -10 c-5 -19 -12 -46 -15 -61 -3 -14 -22 -47 -41 -72
l-35 -46 34 14 c27 11 34 12 30 2 -11 -29 -91 -70 -131 -67 -16 1 -10 38 11
61 12 14 26 32 32 40 5 9 -4 1 -19 -17 -16 -18 -35 -33 -43 -33 -18 0 -34 41
-28 71 l5 24 -14 -24 -14 -24 -7 28 c-4 15 -6 28 -4 29 2 1 15 10 31 19 24 15
27 16 27 2 0 -16 56 11 150 70 19 13 36 22 37 21 1 -1 -1 -18 -6 -37z m-1641
8 c0 -8 -10 -25 -22 -39 -24 -27 -106 -84 -112 -77 -5 7 -36 89 -36 98 0 13
61 29 118 30 37 1 52 -3 52 -12z m-797 -70 c47 -30 55 -41 38 -51 -16 -10 -42
6 -37 21 4 11 1 13 -14 8 -28 -9 -44 3 -29 21 8 10 8 14 0 14 -6 0 -18 -14
-26 -30 -9 -17 -20 -28 -25 -25 -15 9 -12 31 5 45 8 7 15 20 15 29 0 11 -10 4
-30 -19 -21 -26 -32 -32 -40 -24 -8 8 -4 20 16 43 26 31 27 31 53 14 14 -9 47
-30 74 -46z m2037 30 c41 -22 112 -96 104 -108 -3 -5 0 -9 6 -9 8 0 10 -10 6
-27 -5 -22 -4 -25 4 -13 9 12 10 8 4 -15 -4 -16 -9 -250 -11 -520 -2 -269 -7
-493 -12 -498 -5 -5 -11 222 -13 505 -4 449 -7 518 -21 551 -9 21 -21 36 -27
32 -5 -3 -10 2 -10 13 0 11 -15 27 -37 39 -37 21 -50 21 -488 22 -465 1 -531
-4 -574 -41 -11 -9 -22 -14 -25 -11 -3 4 -6 -1 -6 -10 0 -9 -4 -17 -8 -17 -5
0 -15 -12 -23 -27 -11 -23 -15 -124 -17 -545 -2 -285 -7 -518 -11 -518 -5 0
-12 53 -15 118 -9 151 -10 901 -1 927 20 59 30 75 64 109 68 66 62 66 596 63
445 -2 483 -3 515 -20z m-1413 -34 l21 -46 -60 7 c-33 3 -65 9 -71 13 -11 7
60 73 78 72 6 0 20 -21 32 -46z m2083 19 c-41 -19 -193 -23 -210 -6 -8 8 6 8
47 2 43 -7 73 -6 118 5 78 19 88 19 45 -1z m359 -8 c2 -10 15 -34 29 -52 26
-34 38 -67 21 -56 -5 3 -6 10 -3 16 5 7 1 9 -9 5 -11 -4 -14 -2 -11 7 3 8 0
17 -7 22 -7 4 -10 3 -5 -4 3 -6 1 -14 -5 -18 -8 -4 -9 -3 -5 4 4 7 2 12 -5 12
-9 0 -9 3 0 14 10 12 9 14 -6 10 -23 -6 -46 39 -30 55 15 15 31 8 36 -15z
m-2263 -38 c-1 -24 -23 -26 -23 -1 0 8 4 12 9 9 4 -3 8 0 8 5 0 6 2 11 4 11 2
0 3 -11 2 -24z m-959 -8 c-3 -8 -6 -5 -6 6 -1 11 2 17 5 13 3 -3 4 -12 1 -19z
m117 6 c12 -5 13 -10 5 -25 -14 -27 -29 -24 -29 6 0 27 1 28 24 19z m400 -6
c-3 -4 3 -8 12 -8 10 0 15 -3 11 -6 -7 -8 -47 5 -47 15 0 4 7 8 15 8 8 0 12
-4 9 -9z m2687 -73 l23 -40 -31 25 c-38 31 -67 76 -57 91 8 13 30 -12 65 -76z
m-2947 45 c5 0 24 -13 43 -30 18 -16 38 -30 44 -30 5 0 -2 -16 -17 -35 -26
-34 -27 -35 -54 -18 -25 14 -27 19 -17 41 6 13 13 19 15 13 2 -6 8 -9 12 -6 5
3 11 1 15 -5 3 -5 -1 -10 -9 -10 -9 0 -16 -4 -16 -10 0 -13 17 -13 25 0 4 6
11 8 16 5 5 -4 9 -1 9 5 0 6 -11 16 -25 22 -17 8 -24 17 -20 27 3 9 -7 1 -22
-17 -16 -18 -31 -32 -35 -32 -15 0 -8 26 11 40 22 15 19 30 -5 30 -8 0 -13 -3
-10 -8 2 -4 -2 -16 -10 -27 -10 -13 -17 -16 -25 -8 -7 7 -3 21 12 47 20 34 23
36 39 21 9 -8 20 -15 24 -15z m649 -39 c-10 -33 -23 -61 -29 -61 -6 0 -23 9
-36 20 -14 10 -28 17 -31 14 -7 -8 -47 15 -47 26 0 6 12 10 28 10 21 0 24 -2
12 -10 -11 -7 -5 -8 20 -4 39 8 52 14 27 14 -29 0 -18 14 26 35 23 11 43 20
45 19 2 -1 -5 -29 -15 -63z m-740 23 c-8 -20 -33 -17 -33 4 0 10 3 22 7 25 10
11 32 -13 26 -29z m2978 -31 c19 -27 25 -41 14 -33 -17 14 -18 13 -12 -10 6
-24 5 -24 -8 -6 -13 17 -15 17 -15 4 0 -9 -5 -20 -12 -24 -7 -5 -8 -3 -3 6 5
9 4 11 -3 6 -7 -4 -12 -14 -12 -22 0 -8 -4 -13 -9 -9 -5 3 -16 -4 -24 -16 -10
-13 -17 -17 -22 -10 -3 6 -10 9 -15 6 -10 -6 -58 34 -62 53 -3 10 122 98 144
101 4 1 22 -20 39 -46z m-1371 7 c0 -6 -45 -10 -116 -10 -74 0 -113 4 -109 10
4 6 53 10 116 10 66 0 109 -4 109 -10z m1650 -6 c0 -8 -5 -12 -10 -9 -6 4 -8
11 -5 16 9 14 15 11 15 -7z m-3006 -55 c20 -12 36 -24 36 -27 0 -4 -13 -22
-28 -40 l-28 -34 -37 22 c-20 12 -37 25 -37 28 0 10 45 72 52 72 4 0 23 -9 42
-21z m-524 -14 c0 -8 -4 -15 -10 -15 -5 0 -10 7 -10 15 0 8 5 15 10 15 6 0 10
-7 10 -15z m31 -8 c-10 -9 -11 -8 -5 6 3 10 9 15 12 12 3 -3 0 -11 -7 -18z
m135 -45 c38 -23 77 -42 85 -42 21 -1 -56 -40 -124 -62 -33 -11 -82 -30 -109
-43 -26 -13 -48 -19 -48 -14 0 5 20 54 45 109 25 55 45 105 45 112 0 7 6 6 18
-4 9 -8 49 -33 88 -56z m2926 1 l29 -52 -38 -24 c-83 -52 -203 -123 -303 -180
-286 -163 -253 -148 -272 -125 -38 44 -25 64 97 149 44 30 100 69 125 87 106
77 306 202 319 200 7 -2 27 -26 43 -55z m458 46 c44 -13 60 -41 60 -104 0 -36
-4 -47 -22 -56 -13 -7 -26 -17 -30 -23 -4 -6 -8 1 -8 17 0 28 14 37 23 15 3
-7 6 -8 6 -3 0 6 -4 17 -9 25 -9 13 -11 13 -20 0 -5 -8 -10 -27 -10 -43 0 -20
-7 -30 -25 -37 -24 -9 -25 -13 -26 -97 l-1 -88 -15 56 c-12 48 -19 58 -50 73
-27 13 -38 14 -49 5 -12 -10 -13 -9 -8 5 3 9 1 16 -5 16 -15 0 -13 21 4 44 13
17 15 17 29 -15 l14 -34 1 31 c1 20 -5 34 -15 38 -25 9 -34 7 -34 -9 0 -8 -6
-12 -13 -9 -10 4 -12 -3 -9 -28 4 -29 3 -31 -11 -20 -16 13 -43 109 -34 118 3
3 19 -2 36 -10 16 -9 36 -16 43 -16 7 0 -4 8 -26 18 -45 20 -45 20 55 75 36
20 72 43 79 52 15 18 21 18 70 4z m-2583 -39 c3 -10 2 -11 -4 -4 -4 6 -15 14
-23 17 -11 5 -9 6 4 4 11 -1 21 -9 23 -17z m-332 -26 c28 -19 78 -51 112 -70
58 -33 91 -60 82 -68 -9 -9 -269 156 -263 166 8 13 17 10 69 -28z m1945 29 c0
-1 -9 -7 -20 -13 -15 -8 -20 -8 -20 3 0 7 9 13 20 13 11 0 20 -1 20 -3z
m-2577 -18 c-3 -9 -8 -14 -10 -11 -3 3 -2 9 2 15 9 16 15 13 8 -4z m992 5 c3
-5 1 -10 -4 -10 -6 0 -11 5 -11 10 0 6 2 10 4 10 3 0 8 -4 11 -10z m-101 -28
c31 -16 56 -25 56 -20 0 5 23 -3 50 -18 41 -22 50 -32 47 -50 -2 -13 -6 -26
-10 -29 -4 -3 -5 -3 -3 0 2 3 -6 17 -18 30 -12 14 -23 19 -27 13 -4 -7 -14 -6
-30 3 -19 9 -16 3 14 -29 20 -23 37 -44 37 -46 0 -7 -82 38 -99 54 -9 8 -30
26 -46 40 -17 14 -38 37 -48 53 -17 26 -17 27 1 27 11 0 45 -13 76 -28z m1821
-9 c-32 -50 -37 -55 -66 -76 -13 -10 -18 -15 -10 -11 29 14 5 -18 -29 -38
l-35 -22 19 22 19 22 -32 -16 c-45 -23 -51 -9 -12 27 37 34 35 51 -3 26 -23
-15 -25 -15 -29 1 -3 9 -5 3 -6 -15 0 -17 -6 -35 -13 -39 -8 -5 -9 -2 -5 10 5
13 3 17 -7 13 -13 -5 -26 12 -26 34 0 5 19 20 41 35 33 21 43 23 50 12 7 -10
11 -11 17 0 10 15 99 51 129 52 l22 0 -24 -37z m-2755 -62 c-11 -23 -18 -46
-15 -51 3 -6 1 -18 -5 -27 -9 -15 -10 -14 -4 6 4 17 3 21 -6 16 -14 -9 -14 -9
20 57 13 26 25 46 28 44 2 -2 -6 -23 -18 -45z m2347 -278 c-4 -175 -9 -328
-13 -340 -7 -25 -24 -31 -24 -9 0 9 -7 12 -20 9 -18 -5 -19 -7 -5 -17 12 -9 9
-11 -19 -11 -20 0 -40 5 -46 11 -9 9 -24 5 -60 -12 -67 -32 -130 -47 -188 -43
l-49 4 30 -37 c30 -38 47 -48 47 -28 0 6 15 10 33 10 l32 -1 -39 -18 c-37 -18
-40 -18 -90 0 -28 11 -63 28 -78 39 l-27 20 -3 -57 c-2 -34 -8 -58 -15 -61
-10 -3 -13 14 -13 63 l0 66 -37 -30 c-21 -16 -51 -33 -66 -37 -18 -4 -26 -11
-23 -20 7 -19 -8 -18 -24 1 -8 10 -17 12 -22 7 -6 -6 -24 -2 -46 10 -29 15
-54 18 -119 16 -45 -2 -79 -5 -77 -7 4 -4 -56 -33 -95 -46 l-21 -6 0 420 0
421 542 0 541 0 -6 -317z m-1927 256 c0 -5 -4 -9 -10 -9 -5 0 -10 7 -10 16 0
8 5 12 10 9 6 -3 10 -10 10 -16z m2795 -7 c0 -18 -20 -15 -23 4 -3 10 1 15 10
12 7 -3 13 -10 13 -16z m-2807 -96 c62 -25 82 -30 82 -19 0 17 18 13 108 -28
34 -15 62 -23 62 -18 0 11 73 -25 117 -58 17 -13 33 -19 35 -14 5 16 273 -143
276 -165 3 -18 2 -18 -8 -1 -15 23 -30 22 -30 -3 0 -10 -10 -29 -22 -40 l-23
-21 -21 48 -22 48 5 -62 c3 -35 3 -63 -2 -63 -4 0 -45 25 -91 55 -46 30 -94
59 -107 64 -13 5 -87 51 -163 103 -76 51 -143 94 -149 96 -16 5 55 -55 135
-115 41 -31 79 -59 83 -63 4 -4 -27 -6 -70 -5 -59 1 -90 7 -128 25 -49 23 -50
23 -21 29 l29 6 -44 25 c-32 18 -39 25 -26 28 16 3 14 9 -16 45 -59 74 -99
137 -85 137 7 0 50 -15 96 -34z m2881 -3 c-12 -21 -42 -62 -66 -90 -42 -50
-43 -53 -21 -53 18 0 13 -6 -26 -29 l-50 -29 35 -4 34 -3 -54 -27 c-55 -28
-124 -36 -179 -22 -21 6 -21 8 18 36 22 16 45 26 51 22 7 -4 9 -3 6 3 -4 6 10
22 31 37 46 31 126 113 96 98 -11 -6 -26 -18 -33 -26 -7 -8 -36 -30 -64 -47
-29 -18 -88 -56 -132 -84 -44 -28 -99 -61 -123 -73 -24 -12 -68 -41 -99 -63
-63 -47 -75 -42 -62 24 12 63 9 77 -7 32 -24 -64 -59 -69 -70 -9 -5 30 -8 32
-26 23 -11 -6 -22 -9 -24 -6 -3 3 44 32 103 65 59 34 121 70 138 81 21 15 31
17 37 8 5 -8 15 -4 35 15 33 31 110 71 122 63 5 -3 41 9 79 25 82 35 82 35 82
15 0 -14 4 -14 32 1 38 20 127 52 146 53 10 1 7 -10 -9 -36z m-709 23 c0 -11
-19 -15 -25 -6 -3 5 1 10 9 10 9 0 16 -2 16 -4z m867 -38 c-3 -8 -6 -5 -6 6
-1 11 2 17 5 13 3 -3 4 -12 1 -19z m-3494 -25 c-3 -8 3 -13 13 -13 18 -1 18
-1 -1 -12 -11 -6 -25 -19 -32 -27 -11 -14 -12 -14 -13 1 0 9 -8 21 -17 27 -15
8 -15 11 7 34 18 18 27 22 36 13 6 -6 9 -17 7 -23z m1125 -63 c-7 -11 -17 -20
-22 -20 -5 0 -1 9 9 20 10 11 20 20 22 20 2 0 -2 -9 -9 -20z m-878 -34 c46
-31 48 -43 4 -25 -44 18 -172 16 -216 -4 -53 -23 -47 -2 10 34 41 27 54 30
104 27 40 -3 68 -12 98 -32z m3525 -4 c-8 -8 -25 10 -19 20 4 6 9 5 15 -3 4
-7 6 -15 4 -17z m-127 -41 c106 -1 114 -3 137 -26 23 -22 25 -31 25 -124 0
-99 0 -99 -31 -126 -25 -20 -41 -25 -75 -24 -24 2 -44 5 -44 7 0 2 11 17 25
34 33 39 39 66 26 116 -16 58 -69 102 -124 102 -76 0 -126 -50 -127 -127 0
-32 8 -51 35 -87 l35 -46 -51 0 c-44 0 -55 4 -75 28 -20 22 -24 24 -24 9 0
-11 14 -32 30 -47 23 -21 26 -27 11 -23 -47 12 -56 38 -56 163 0 111 2 120 24
144 23 25 58 34 116 30 17 -1 81 -3 143 -3z m-3709 -28 c-8 -9 -16 -10 -22 -4
-13 13 0 31 19 24 11 -4 12 -8 3 -20z m444 -20 c-6 -15 -33 -18 -33 -4 0 5 3
16 6 25 5 12 9 13 19 3 7 -6 10 -18 8 -24z m-132 6 c39 -15 72 -66 77 -119 12
-124 -135 -210 -260 -151 -76 35 -99 64 -105 130 -5 58 -5 60 33 101 31 33 49
43 89 50 55 9 126 5 166 -11z m3387 -45 c12 -8 22 -20 22 -25 0 -6 -12 -1 -26
10 -37 29 -70 26 -105 -8 -17 -18 -29 -24 -29 -16 0 46 91 72 138 39z m-2878
-29 c6 -4 10 -11 10 -18 0 -8 -3 -8 -12 1 -7 7 -19 12 -27 12 -14 0 -14 -2 -1
-11 11 -7 6 -8 -20 -3 -32 6 -90 30 -90 37 0 5 130 -12 140 -18z m2310 -1
c-19 -9 -64 -18 -99 -20 -57 -4 -63 -3 -51 11 14 17 25 21 15 5 -3 -6 1 -7 9
-4 9 3 14 9 11 14 -2 4 30 8 73 8 l77 2 -35 -16z m570 -17 c14 -27 14 -29 -13
-53 -15 -13 -35 -24 -43 -24 -20 0 -54 37 -54 59 0 55 82 68 110 18z m-3050 8
c16 -19 1 -19 -24 0 -16 12 -17 15 -4 15 8 0 21 -7 28 -15z m2580 0 c-14 -16
-40 -20 -40 -6 0 10 17 19 39 20 11 1 11 -2 1 -14z m119 -8 c8 -10 7 -19 -4
-33 -8 -11 -15 -14 -15 -6 0 6 -7 12 -15 12 -13 0 -13 3 -3 20 15 23 22 25 37
7z m-2816 -10 c3 -8 1 -20 -3 -27 -7 -11 -11 -11 -24 -1 -12 11 -14 17 -5 27
14 18 25 18 32 1z m275 -81 c60 -30 107 -83 123 -136 11 -37 10 -45 -11 -83
-33 -61 -35 -61 -35 -4 -2 159 -182 249 -309 153 -52 -40 -76 -87 -76 -152 0
-101 88 -184 194 -184 l47 0 -18 -25 c-16 -23 -24 -25 -65 -22 -68 6 -136 50
-175 115 -18 31 -33 47 -36 40 -6 -14 -10 56 -7 110 3 49 25 97 65 136 86 87
197 106 303 52z m2446 9 c60 -29 121 -97 136 -152 29 -101 6 -207 -57 -264
-23 -21 -22 -19 5 17 51 64 65 143 40 226 -15 50 -79 123 -132 150 -53 28
-146 29 -196 3 -50 -26 -110 -76 -104 -86 3 -5 0 -9 -6 -9 -6 0 -8 -5 -4 -12
5 -7 3 -8 -6 -3 -10 6 -12 4 -6 -11 5 -14 4 -16 -4 -8 -9 9 -8 20 5 44 23 45
61 78 120 107 41 20 61 23 111 20 33 -3 77 -12 98 -22z m-2055 -85 c-1 -49 -5
-90 -9 -90 -5 0 -11 -19 -15 -42 -12 -79 -28 -113 -78 -168 -28 -30 -58 -67
-67 -82 -9 -16 -19 -26 -21 -23 -3 2 -14 -12 -24 -33 -25 -46 -42 -59 -135
-100 -41 -18 -90 -47 -109 -65 -39 -37 -70 -100 -71 -140 0 -26 4 -23 48 34
44 59 53 65 137 99 50 20 108 49 129 65 42 32 136 150 136 171 0 7 15 28 33
47 35 37 66 48 187 67 l75 11 70 -76 c81 -85 99 -91 175 -52 55 28 68 65 42
116 -10 19 -24 37 -31 39 -10 3 -10 0 -2 -16 18 -35 14 -80 -9 -87 -11 -4 -18
-11 -15 -16 3 -5 -1 -6 -9 -3 -9 3 -16 1 -16 -5 0 -6 -7 -8 -15 -5 -8 4 -15 1
-15 -5 0 -6 -8 -7 -20 -3 -24 9 -112 111 -107 125 2 6 34 21 73 34 85 29 125
24 171 -22 27 -27 33 -40 33 -77 0 -52 -35 -118 -72 -136 -44 -21 -268 -63
-305 -57 -29 4 -34 2 -29 -10 3 -8 2 -14 -2 -13 -20 4 -62 -27 -62 -47 0 -12
-14 -34 -31 -51 -17 -16 -50 -67 -74 -114 -53 -104 -109 -166 -184 -202 l-56
-28 60 6 c33 3 87 14 119 25 33 10 63 16 65 13 3 -3 -2 -19 -12 -36 l-18 -31
24 16 24 16 -8 -42 c-21 -113 -67 -197 -157 -286 -92 -90 -171 -126 -277 -126
-97 0 -146 23 -195 87 -28 37 -31 39 -26 16 22 -96 102 -199 191 -245 124 -64
340 -4 487 135 l37 35 12 -26 c45 -99 -103 -234 -315 -287 -110 -28 -153 -27
-178 5 -11 14 -43 37 -70 51 -76 38 -241 203 -278 277 -38 77 -38 119 0 188
47 84 62 121 130 314 72 208 104 274 198 405 48 68 80 102 111 119 52 28 116
113 165 216 38 80 90 144 146 181 19 12 36 23 38 23 1 1 2 -39 1 -89z m1517
28 c43 -40 67 -74 99 -138 59 -123 99 -177 160 -215 29 -19 70 -58 91 -87 20
-29 54 -75 75 -103 41 -56 99 -174 134 -274 83 -243 108 -303 154 -375 61 -97
34 -189 -92 -316 -99 -100 -186 -172 -199 -164 -7 4 -8 2 -4 -4 4 -7 -12 -21
-41 -35 -37 -19 -60 -23 -98 -20 -167 13 -332 97 -395 199 -23 36 -28 74 -15
113 7 23 8 22 54 -21 141 -136 349 -197 476 -140 86 39 179 153 201 247 6 28
4 27 -30 -16 -49 -62 -100 -84 -196 -84 -64 0 -85 5 -143 32 -132 63 -264 235
-286 373 l-8 48 26 -16 26 -17 -23 29 c-36 47 -29 57 26 36 59 -23 161 -43
193 -38 18 2 4 10 -54 32 -53 19 -77 33 -73 41 3 8 -6 20 -18 29 -13 8 -43 50
-66 93 -23 43 -59 101 -81 130 -21 29 -39 59 -39 68 0 8 -11 21 -25 27 -22 10
-28 19 -27 38 0 3 -20 3 -44 1 -56 -4 -301 56 -329 81 -22 18 -45 89 -45 134
0 32 55 88 96 98 17 5 55 -2 110 -20 l84 -26 -54 -62 c-44 -49 -60 -61 -84
-61 -17 0 -28 3 -26 6 5 8 -45 31 -55 25 -12 -8 -12 63 0 87 12 22 12 22 -9 4
-67 -60 -28 -148 72 -164 37 -6 40 -4 112 71 66 68 78 77 102 72 15 -4 60 -10
100 -15 93 -12 132 -37 173 -114 17 -32 58 -87 91 -122 53 -57 70 -68 154
-101 83 -32 100 -43 148 -95 l53 -60 -7 38 c-4 21 -12 50 -18 65 -15 36 -97
100 -166 128 -31 12 -56 27 -56 33 0 6 -3 8 -6 4 -8 -8 -64 51 -135 145 -33
42 -69 84 -80 92 -23 16 -38 72 -39 143 0 23 -5 43 -10 45 -6 2 -13 36 -17 76
-7 90 3 93 83 20z m546 5 c60 -43 97 -106 103 -174 l4 -54 -9 54 c-10 55 -47
131 -63 131 -5 0 1 -15 12 -34 30 -47 26 -56 -4 -12 -14 21 -22 42 -19 48 5 7
2 8 -6 3 -9 -6 -11 -4 -5 5 5 8 4 11 -2 7 -6 -4 -27 3 -49 13 -75 39 -164 19
-222 -48 -23 -27 -24 -27 -17 -3 6 18 4 22 -6 16 -8 -5 -3 4 11 20 65 73 192
86 272 28z m-392 18 c0 -6 -4 -13 -10 -16 -5 -3 -10 1 -10 9 0 9 5 16 10 16 6
0 10 -4 10 -9z m325 -32 c83 -23 138 -123 115 -209 -9 -32 -14 -40 -21 -29 -7
12 -9 12 -9 -1 0 -9 -3 -11 -8 -5 -12 16 -31 16 -62 0 -16 -8 -35 -15 -42 -15
-7 0 3 8 22 18 68 34 77 97 20 153 -22 22 -38 29 -68 29 -79 0 -123 -74 -88
-146 19 -42 12 -45 -9 -4 -28 53 -12 120 37 155 23 16 23 16 -7 9 -39 -9 -53
-23 -70 -70 -12 -32 -14 -35 -15 -14 0 42 34 93 80 117 49 26 68 28 125 12z
m-2420 -28 c47 -27 75 -76 75 -132 0 -51 -2 -53 -35 -40 -15 6 -27 0 -51 -26
-26 -28 -38 -33 -75 -33 -27 0 -56 8 -74 20 -22 14 -32 16 -42 8 -35 -29 -55
67 -29 136 21 54 34 66 94 82 53 14 93 9 137 -15z m-795 -11 c0 -6 10 -14 22
-19 l23 -8 -23 -7 c-12 -4 -22 -15 -22 -23 0 -12 -5 -10 -22 8 -21 22 -21 26
-8 41 17 19 30 22 30 8z m2340 -20 c0 -5 -5 -10 -11 -10 -5 0 -7 5 -4 10 3 6
8 10 11 10 2 0 4 -4 4 -10z m600 -51 c0 -5 -4 -9 -10 -9 -5 0 -10 7 -10 16 0
8 5 12 10 9 6 -3 10 -10 10 -16z m47 -31 c-3 -8 -6 -5 -6 6 -1 11 2 17 5 13 3
-3 4 -12 1 -19z m370 -45 c-2 -16 -4 -5 -4 22 0 28 2 40 4 28 2 -13 2 -35 0
-50z m127 61 c20 -8 20 -21 1 -40 -8 -9 -15 -12 -15 -7 0 4 -3 18 -6 31 -7 24
-4 25 20 16z m-3071 -25 c-4 -12 -11 -18 -20 -15 -8 3 -17 6 -19 6 -2 0 -4 7
-4 15 0 9 9 15 24 15 19 0 23 -4 19 -21z m2020 11 c27 0 37 -4 37 -16 0 -10
-6 -13 -17 -10 -27 8 -151 19 -208 18 -38 0 -45 2 -30 8 11 5 56 8 100 5 44
-2 97 -5 118 -5z m-2079 -41 c4 -23 5 -44 2 -46 -2 -2 -30 -10 -62 -18 -33 -7
-66 -16 -75 -20 -13 -5 -18 2 -23 30 -9 47 -32 41 -28 -8 l3 -35 -55 -12 c-64
-13 -92 -8 -99 20 -10 40 39 73 127 85 12 1 28 5 36 8 20 9 131 34 151 36 12
1 18 -11 23 -40z m3281 25 c39 -9 98 -21 132 -28 73 -15 105 -39 101 -75 -4
-32 -32 -38 -103 -22 -50 11 -51 12 -47 46 3 21 0 35 -7 35 -6 0 -11 -11 -11
-24 0 -14 -4 -27 -9 -30 -7 -5 -159 22 -169 30 -2 2 -1 21 3 43 8 47 9 48 110
25z m-1820 -64 c3 -5 1 -10 -4 -10 -6 0 -11 5 -11 10 0 6 2 10 4 10 3 0 8 -4
11 -10z m62 4 c-3 -3 -12 -4 -19 -1 -8 3 -5 6 6 6 11 1 17 -2 13 -5z m2160
-26 c-3 -8 -6 -5 -6 6 -1 11 2 17 5 13 3 -3 4 -12 1 -19z m-1970 6 c-3 -3 -12
-4 -19 -1 -8 3 -5 6 6 6 11 1 17 -2 13 -5z m-221 -19 c-3 -8 2 -19 12 -24 9
-6 12 -11 6 -11 -17 0 -37 27 -29 40 9 15 18 12 11 -5z m1301 -1 c-3 -3 -12
-4 -19 -1 -8 3 -5 6 6 6 11 1 17 -2 13 -5z m-1245 -17 c-8 -9 -1 -11 33 -9 37
3 48 0 72 -25 15 -15 29 -32 30 -38 1 -5 4 -26 8 -45 5 -30 2 -42 -27 -77 -56
-71 -143 -172 -148 -172 -3 0 -17 17 -33 39 l-27 39 31 36 32 36 -22 29 c-30
41 -27 86 12 147 17 29 36 53 41 53 5 0 4 -6 -2 -13z m1418 -11 c0 -2 -8 -10
-17 -17 -16 -13 -17 -12 -4 4 13 16 21 21 21 13z m-1460 -21 c0 -2 -6 -8 -13
-14 -10 -8 -14 -7 -14 2 0 8 6 14 14 14 7 0 13 -1 13 -2z m1931 -86 c23 -13
51 -36 62 -50 39 -54 39 -142 -2 -182 -19 -20 -20 -20 -34 14 -17 40 -69 94
-111 116 -50 26 -133 22 -191 -8 -39 -21 -55 -24 -75 -17 -39 14 -60 39 -60
69 0 41 44 68 122 75 34 3 65 8 68 11 3 3 44 3 91 0 67 -3 97 -10 130 -28z
m-3317 -11 c23 -33 20 -56 -13 -89 -36 -35 -75 -38 -127 -7 -27 16 -53 22 -98
22 -62 -1 -101 -15 -159 -58 -24 -18 -29 -18 -37 -6 -15 23 -12 66 6 81 20 16
304 77 366 78 38 1 50 -3 62 -21z m2765 -98 c11 -24 11 -24 -3 -6 -9 11 -16
24 -16 30 0 12 5 7 19 -24z m-2934 -42 c12 -13 26 -23 33 -20 17 5 25 -43 11
-70 -6 -12 -21 -33 -33 -45 -12 -12 -31 -35 -43 -51 -29 -38 -74 -46 -129 -21
-45 20 -54 34 -54 80 0 66 54 107 117 90 39 -11 83 -47 83 -68 0 -26 20 -12
28 20 12 41 -11 69 -82 97 l-51 21 50 -5 c36 -3 55 -10 70 -28z m1744 3 l21
-30 -24 -35 -24 -36 -31 35 -31 35 33 30 c17 16 33 30 34 30 1 0 11 -13 22
-29z m1552 5 c-35 -37 -42 -89 -22 -153 14 -44 25 -60 59 -83 47 -31 40 -40
-31 -40 -124 0 -185 143 -105 245 22 29 70 54 102 55 18 0 18 -2 -3 -24z m120
-14 c23 -20 32 -39 35 -66 l3 -38 -29 40 c-16 22 -39 47 -52 56 -21 15 -24 15
-35 -1 -17 -22 -17 -9 -1 17 18 28 42 25 79 -8z m-3142 -69 c0 -5 -10 -28 -22
-52 -18 -37 -32 -49 -75 -68 l-53 -23 3 51 3 51 55 24 c56 24 90 30 89 17z
m2782 -14 c48 -21 49 -22 49 -65 0 -24 -2 -44 -4 -44 -1 0 -17 5 -34 11 -23 8
-39 24 -57 61 -14 27 -25 52 -25 54 0 9 23 3 71 -17z m-1313 -65 c43 -33 62
-73 62 -129 0 -59 -20 -97 -65 -125 -20 -12 -37 -21 -38 -19 -1 2 -15 29 -31
59 -16 30 -33 60 -38 65 -14 15 14 -46 36 -77 26 -40 16 -55 -39 -56 -25 -1
-43 3 -40 7 3 5 -3 7 -13 4 -11 -3 -32 7 -52 23 -105 89 -64 241 75 277 38 10
110 -5 143 -29z m-387 4 c51 -29 84 -93 76 -150 -10 -75 -67 -128 -145 -136
-65 -6 -114 11 -152 54 -26 30 -30 43 -30 91 0 40 6 66 22 91 42 68 154 92
229 50z m729 0 c53 -27 81 -74 79 -133 l-2 -40 -6 45 c-13 88 -60 130 -145
130 -94 0 -153 -66 -144 -162 6 -54 32 -91 83 -115 l30 -14 -29 6 c-42 9 -81
39 -96 75 -19 47 -9 144 19 174 55 59 136 71 211 34z m-14 -62 c18 -26 18 -93
0 -103 -9 -5 -16 -28 -18 -58 -3 -48 -4 -50 -33 -50 -28 0 -30 3 -33 41 -2 28
-11 49 -28 64 -31 30 -32 77 -2 105 30 28 94 28 114 1z m-1866 -53 c-1 -18
-29 -43 -48 -43 -30 0 -36 -17 -17 -46 9 -14 15 -27 13 -28 -20 -15 -110 -66
-115 -66 -4 0 -17 12 -29 28 -16 20 -26 24 -34 16 -8 -8 -7 -14 5 -24 25 -21
17 -44 -26 -68 -31 -18 -50 -22 -75 -17 -31 5 -34 9 -34 39 0 19 6 38 13 43 6
6 68 39 137 74 69 34 141 71 160 81 38 19 50 22 50 11z m2930 -25 c141 -66
246 -120 262 -135 24 -21 23 -48 -3 -74 -22 -22 -43 -20 -96 13 -32 19 -32 20
-18 48 22 43 17 58 -9 28 -13 -15 -26 -32 -28 -39 -3 -8 -23 -1 -64 23 -60 36
-65 44 -49 96 6 17 3 22 -11 22 -19 0 -54 27 -54 42 0 5 3 8 8 6 4 -2 32 -16
62 -30z m-3288 -40 c-4 -15 -7 -16 -24 -4 -11 8 -26 23 -34 34 -14 20 -14 20
24 4 29 -12 38 -21 34 -34z m3637 35 c-7 -10 -22 -26 -34 -35 -18 -16 -20 -16
-26 0 -4 11 4 21 25 33 41 22 51 23 35 2z m-1346 -88 c-3 -9 -8 -14 -10 -11
-3 3 -2 9 2 15 9 16 15 13 8 -4z m-419 -206 c50 -59 28 -149 -44 -179 -41 -17
-101 0 -129 37 -28 35 -28 103 0 134 l21 24 -16 -25 c-23 -36 -21 -105 4 -130
46 -46 107 -48 154 -5 20 18 26 34 26 65 0 51 -12 75 -48 94 -18 10 -21 15
-10 16 9 0 28 -14 42 -31z m1566 -90 c0 -36 -34 -113 -70 -159 -19 -24 -19
-23 1 30 13 34 20 73 18 105 -1 27 1 68 6 89 l8 39 18 -34 c10 -19 18 -50 19
-70z m-3250 -16 c4 -54 11 -107 15 -118 l7 -20 -17 20 c-26 30 -55 103 -55
136 0 31 27 95 37 86 3 -3 9 -50 13 -104z m-70 26 c0 -5 -4 -9 -10 -9 -5 0
-10 7 -10 16 0 8 5 12 10 9 6 -3 10 -10 10 -16z m2220 -134 c0 -6 -56 -35 -67
-35 -4 1 8 9 27 20 39 22 40 22 40 15z m-837 -42 c-35 -2 -91 -2 -125 0 -35 2
-7 3 62 3 69 0 97 -1 63 -3z m389 -41 c35 -22 92 -56 128 -76 158 -90 244
-144 256 -161 26 -35 16 -62 -54 -142 -199 -228 -223 -253 -234 -247 -5 3 -18
-2 -28 -11 -32 -29 -92 -44 -178 -45 -94 0 -132 12 -180 60 -22 23 -31 27 -26
14 4 -13 -3 -10 -21 11 -209 230 -251 279 -259 295 -14 32 1 64 44 90 22 14
89 55 148 91 325 199 293 189 404 121z m221 41 c-29 -2 -77 -2 -105 0 -29 2
-6 3 52 3 58 0 81 -1 53 -3z m84 1 c-3 -3 -12 -4 -19 -1 -8 3 -5 6 6 6 11 1
17 -2 13 -5z m1268 -13 c3 -5 2 -12 -3 -15 -5 -3 -9 1 -9 9 0 17 3 19 12 6z
m-2186 -148 c-6 -10 -23 -27 -37 -37 -21 -15 -20 -12 7 17 38 41 47 46 30 20z
m2044 -24 c-8 -8 -13 -7 -18 2 -6 8 -4 10 5 4 10 -6 12 -4 6 11 -6 15 -5 17 5
7 9 -10 10 -16 2 -24z m-2976 -34 c0 -8 -4 -12 -9 -9 -5 3 -6 10 -3 15 9 13
12 11 12 -6z m2933 -10 c0 -2 -10 -9 -22 -15 -22 -11 -22 -10 -4 4 21 17 26
19 26 11z m-2883 -40 c0 -8 -4 -12 -9 -9 -5 3 -6 10 -3 15 9 13 12 11 12 -6z
m758 -65 c-5 -8 -11 -8 -17 -2 -6 6 -7 16 -3 22 5 8 11 8 17 2 6 -6 7 -16 3
-22z m1278 5 c-6 -18 -19 -19 -29 -4 -7 12 15 31 28 23 4 -3 5 -11 1 -19z
m-1193 -89 c0 5 12 -9 27 -31 14 -22 32 -44 40 -48 7 -5 11 -12 8 -17 -3 -4 3
-11 13 -15 13 -6 4 -14 -42 -36 -56 -27 -61 -27 -95 -13 -20 8 -48 23 -62 34
-15 10 -41 23 -60 27 l-33 9 30 21 c62 44 148 82 161 71 7 -6 13 -7 13 -2z
m1268 -64 c32 -17 42 -32 20 -32 -6 0 -8 -3 -5 -7 10 -9 -43 -34 -56 -26 -5 3
-7 1 -3 -5 10 -16 -78 -46 -111 -38 -43 11 -118 49 -105 54 7 2 12 10 12 17 0
17 59 80 83 89 10 3 15 11 12 17 -6 9 48 -15 153 -69z m-248 -186 c0 -3 -4 -8
-10 -11 -5 -3 -10 -1 -10 4 0 6 5 11 10 11 6 0 10 -2 10 -4z"/>
<path d="M422 2670 c0 -14 2 -19 5 -12 2 6 2 18 0 25 -3 6 -5 1 -5 -13z"/>
<path d="M411 2624 c0 -11 3 -14 6 -6 3 7 2 16 -1 19 -3 4 -6 -2 -5 -13z"/>
<path d="M2046 3955 c4 -16 12 -48 19 -70 7 -22 21 -67 31 -100 14 -46 19 -54
22 -35 1 14 -11 66 -29 115 -34 99 -53 139 -43 90z"/>
<path d="M3031 4084 c0 -11 3 -14 6 -6 3 7 2 16 -1 19 -3 4 -6 -2 -5 -13z"/>
<path d="M2961 3932 c-1 -8 -15 -45 -31 -83 -22 -49 -29 -76 -24 -96 6 -23 12
-12 36 72 15 55 26 105 24 110 -3 6 -5 4 -5 -3z"/>
<path d="M1534 4015 c-17 -13 -14 -14 34 -15 38 0 52 4 50 12 -6 18 -62 20
-84 3z"/>
<path d="M1669 3833 c6 -12 20 -24 31 -28 24 -8 60 11 60 30 0 11 -5 10 -20
-5 -21 -21 -30 -20 -64 9 -18 15 -18 15 -7 -6z"/>
<path d="M1361 3744 c-1 -11 8 -29 19 -39 31 -28 74 -10 77 30 2 28 1 28 -5 5
-7 -20 -14 -25 -42 -25 -28 0 -35 5 -41 25 -6 22 -7 22 -8 4z"/>
<path d="M1320 3570 c0 -5 5 -10 11 -10 5 0 7 5 4 10 -3 6 -8 10 -11 10 -2 0
-4 -4 -4 -10z"/>
<path d="M844 3298 c7 -30 -9 -47 -27 -29 -6 6 -16 11 -21 11 -6 0 -5 -4 3 -9
11 -7 9 -13 -8 -30 -11 -11 -21 -27 -21 -33 0 -7 10 -1 21 15 14 18 30 27 49
27 27 0 28 1 20 31 -12 40 -25 54 -16 17z"/>
<path d="M805 3300 c-3 -6 1 -7 9 -4 18 7 21 14 7 14 -6 0 -13 -4 -16 -10z"/>
<path d="M905 3280 c-3 -5 -2 -10 4 -10 5 0 13 5 16 10 3 6 2 10 -4 10 -5 0
-13 -4 -16 -10z"/>
<path d="M4297 3296 c-15 -24 -27 -47 -27 -52 0 -5 14 13 31 40 17 26 29 50
27 51 -2 2 -16 -15 -31 -39z"/>
<path d="M4245 3204 c-11 -18 -23 -24 -36 -21 -10 3 -17 1 -13 -4 12 -19 44
-8 59 21 19 37 13 39 -10 4z"/>
<path d="M4070 3200 c0 -5 5 -10 10 -10 6 0 10 5 10 10 0 6 -4 10 -10 10 -5 0
-10 -4 -10 -10z"/>
<path d="M4105 3150 c3 -5 11 -10 16 -10 6 0 7 5 4 10 -3 6 -11 10 -16 10 -6
0 -7 -4 -4 -10z"/>
<path d="M4174 3135 c-1 -14 2 -25 7 -25 5 0 9 11 9 25 0 33 -15 33 -16 0z"/>
<path d="M2869 2729 c-37 -36 -86 -75 -110 -86 l-43 -20 39 -6 c57 -7 86 -7
81 1 -2 4 11 18 30 31 22 16 33 30 29 39 -4 11 -2 12 8 4 10 -9 17 -4 32 20
22 38 29 85 12 84 -7 -1 -42 -31 -78 -67z"/>
<path d="M2593 2736 c2 -19 33 -31 42 -16 3 5 -3 7 -12 6 -10 -2 -21 4 -25 13
-6 13 -7 12 -5 -3z"/>
<path d="M2129 2713 c-13 -16 -12 -17 4 -4 16 13 21 21 13 21 -2 0 -10 -8 -17
-17z"/>
<path d="M2180 2682 c16 -16 27 -32 23 -36 -4 -4 1 -4 11 0 13 5 17 4 13 -3
-4 -7 0 -10 10 -9 10 2 21 -1 24 -6 4 -6 9 -6 13 1 4 6 2 11 -3 11 -16 0 -25
3 -36 12 -5 4 -24 19 -41 33 -43 34 -51 32 -14 -3z"/>
<path d="M2865 2632 c-16 -11 -16 -32 -1 -32 9 0 14 9 13 20 -1 11 -1 20 -2
20 0 0 -4 -4 -10 -8z"/>
<path d="M2935 2590 c3 -5 8 -10 11 -10 2 0 4 5 4 10 0 6 -5 10 -11 10 -5 0
-7 -4 -4 -10z"/>
<path d="M2175 2559 c-3 -4 5 -15 17 -23 21 -15 21 -16 3 -17 -11 -1 -1 -6 21
-12 23 -7 48 -17 55 -23 17 -14 62 -11 67 4 2 7 9 12 16 12 7 0 20 8 29 18 15
16 13 17 -37 14 -33 -2 -73 3 -109 16 -32 10 -60 16 -62 11z"/>
<path d="M2125 2531 c-3 -6 5 -15 17 -21 21 -10 22 -10 5 3 -14 11 -15 16 -5
20 9 4 9 6 1 6 -6 1 -14 -3 -18 -8z"/>
<path d="M1288 2973 c7 -3 16 -2 19 1 4 3 -2 6 -13 5 -11 0 -14 -3 -6 -6z"/>
<path d="M1384 2965 c3 -11 7 -34 11 -51 3 -18 15 -40 26 -50 25 -23 23 -11
-12 61 -16 33 -27 51 -25 40z"/>
<path d="M1521 2914 c-2 -28 41 -142 55 -148 12 -5 14 -1 8 17 -12 38 -62 143
-63 131z"/>
<path d="M3596 2927 c-37 -66 -43 -83 -26 -72 13 8 72 126 66 132 -2 3 -20
-24 -40 -60z"/>
<path d="M3715 2970 c4 -6 11 -8 16 -5 14 9 11 15 -7 15 -8 0 -12 -5 -9 -10z"/>
<path d="M3456 2854 c-28 -62 -33 -88 -13 -82 11 4 51 128 43 136 -2 2 -16
-22 -30 -54z"/>
<path d="M1886 2270 c6 -8 16 -24 22 -35 6 -11 12 -15 12 -8 0 7 -10 22 -22
35 -13 13 -18 17 -12 8z"/>
<path d="M1770 2236 c0 -3 15 -15 33 -27 23 -17 28 -18 18 -6 -14 18 -51 42
-51 33z"/>
<path d="M3112 2260 c-7 -11 -12 -25 -12 -32 0 -7 7 0 15 16 18 33 15 45 -3
16z"/>
<path d="M3209 2213 l-24 -26 33 23 c33 25 38 30 24 30 -5 0 -19 -12 -33 -27z"/>
<path d="M3239 2173 c-13 -16 -12 -17 4 -4 16 13 21 21 13 21 -2 0 -10 -8 -17
-17z"/>
<path d="M3645 2651 c-22 -10 -46 -25 -54 -34 -20 -25 -4 -21 35 10 49 37 124
43 188 15 26 -12 44 -16 40 -11 -24 39 -144 50 -209 20z"/>
<path d="M3882 2420 c0 -14 2 -19 5 -12 2 6 2 18 0 25 -3 6 -5 1 -5 -13z"/>
<path d="M2478 2292 c-35 -4 -35 -10 0 -51 l28 -33 27 35 c15 20 27 38 27 40
0 7 -51 12 -82 9z"/>
<path d="M2586 1903 c7 -16 14 -46 15 -68 0 -22 6 -62 13 -90 l12 -50 17 32
c33 63 16 146 -39 188 -29 22 -34 18 -18 -12z"/>
<path d="M2379 1854 c-19 -41 -19 -51 -8 -97 11 -48 13 -50 22 -27 9 22 17
170 9 170 -2 0 -12 -21 -23 -46z"/>
<path d="M2135 1930 c-3 -5 -3 -11 2 -11 36 -6 54 -5 60 4 3 6 1 7 -5 3 -6 -3
-13 -2 -17 4 -8 13 -32 13 -40 0z"/>
<path d="M2070 1920 c-8 -5 -10 -10 -5 -10 6 0 17 5 25 10 8 5 11 10 5 10 -5
0 -17 -5 -25 -10z"/>
<path d="M2110 1890 c14 -9 7 -14 -13 -11 -5 1 -6 -3 -2 -8 3 -6 13 -8 23 -5
14 5 14 3 -2 -10 -17 -14 -18 -16 -3 -16 9 0 18 5 18 10 1 6 2 16 3 23 2 13
-13 27 -29 27 -5 0 -3 -5 5 -10z"/>
<path d="M2209 1883 c15 -30 14 -33 -6 -27 -14 4 -14 2 2 -8 11 -7 20 -24 21
-38 1 -24 -2 -25 -40 -21 -30 3 -36 6 -22 11 15 5 16 8 5 12 -23 9 -79 -3 -79
-17 0 -27 30 -38 89 -32 44 4 61 1 65 -8 8 -21 -4 -25 -73 -25 -55 1 -70 5
-93 25 -16 14 -25 30 -22 38 3 8 1 18 -5 22 -15 9 -14 42 2 48 9 4 9 7 -1 18
-36 39 -69 -89 -38 -150 48 -92 194 -95 252 -5 23 34 23 123 0 139 -9 7 -12
16 -8 20 4 4 -2 3 -13 -3 -15 -8 -22 -6 -33 6 -11 15 -12 14 -3 -5z m41 -23
c0 -5 -5 -10 -11 -10 -5 0 -7 5 -4 10 3 6 8 10 11 10 2 0 4 -4 4 -10z"/>
<path d="M2062 1854 c-7 -8 -8 -14 -3 -14 10 0 25 19 20 25 -2 1 -10 -3 -17
-11z"/>
<path d="M2140 1838 c0 -11 12 -10 30 2 12 7 10 9 -8 7 -12 0 -22 -5 -22 -9z"/>
<path d="M2857 1838 c-19 -20 -19 -20 2 -13 17 5 21 2 22 -17 1 -19 3 -18 8 7
12 49 -1 58 -32 23z"/>
<path d="M2920 1830 c0 -5 5 -10 11 -10 5 0 7 5 4 10 -3 6 -8 10 -11 10 -2 0
-4 -4 -4 -10z"/>
<path d="M2448 1181 c-15 -5 -65 -34 -113 -65 -61 -40 -94 -69 -116 -103 -28
-44 -30 -53 -25 -113 3 -36 6 -71 7 -79 3 -16 56 -71 152 -156 76 -67 103 -84
132 -85 30 0 92 46 111 82 23 45 32 52 115 95 81 42 107 70 116 126 15 95 -42
178 -178 257 -78 46 -144 59 -201 41z m196 -71 c115 -78 167 -150 154 -215 -6
-33 -55 -59 -111 -60 l-52 0 -6 58 c-14 127 -115 176 -199 97 -28 -26 -32 -35
-29 -74 2 -24 3 -43 1 -41 -2 1 -15 -8 -30 -22 -22 -20 -33 -23 -62 -18 -19 3
-48 19 -64 35 -24 24 -28 33 -22 63 10 52 56 108 132 162 78 54 100 63 166 64
40 1 57 -6 122 -49z"/>
<path d="M2739 613 l-34 -38 38 34 c20 19 37 36 37 38 0 8 -8 0 -41 -34z"/>
<path d="M2622 569 c-31 -15 -68 -21 -131 -22 -100 -2 -101 -17 -1 -17 77 0
129 13 162 40 28 24 25 24 -30 -1z"/>
</g>
</svg>
